<mxfile host="app.diagrams.net" modified="2023-07-19T11:47:34.396Z" agent="Mozilla/5.0 (X11; Linux x86_64) AppleWebKit/537.36 (KHTML, like Gecko) Chrome/102.0.0.0 Safari/537.36" etag="ZF-vdRTCe_MLR54tDwE4" version="21.6.1" type="device">
  <diagram name="PÃ¡gina-1" id="lFabIclvilxt42sHl5SS">
    <mxGraphModel dx="1434" dy="710" grid="1" gridSize="10" guides="1" tooltips="1" connect="1" arrows="1" fold="1" page="1" pageScale="1" pageWidth="1169" pageHeight="1654" math="0" shadow="0">
      <root>
        <mxCell id="0" />
        <mxCell id="1" parent="0" />
        <mxCell id="BF9Q4GaVTIHr-r1WIZOA-15" value="" style="rounded=1;whiteSpace=wrap;html=1;" vertex="1" parent="1">
          <mxGeometry x="73" y="640" width="237" height="300" as="geometry" />
        </mxCell>
        <mxCell id="BF9Q4GaVTIHr-r1WIZOA-3" value="" style="group" vertex="1" connectable="0" parent="1">
          <mxGeometry x="70" y="560" width="250" height="60" as="geometry" />
        </mxCell>
        <mxCell id="BF9Q4GaVTIHr-r1WIZOA-1" value="" style="rounded=1;whiteSpace=wrap;html=1;movable=1;resizable=1;rotatable=1;deletable=1;editable=1;locked=0;connectable=1;" vertex="1" parent="BF9Q4GaVTIHr-r1WIZOA-3">
          <mxGeometry width="250" height="60" as="geometry" />
        </mxCell>
        <mxCell id="BF9Q4GaVTIHr-r1WIZOA-2" value="&lt;font style=&quot;font-size: 20px;&quot;&gt;Development&lt;/font&gt;" style="text;html=1;strokeColor=none;fillColor=none;align=center;verticalAlign=middle;whiteSpace=wrap;rounded=0;fontSize=20;fontStyle=3;fontColor=#FFA557;movable=1;resizable=1;rotatable=1;deletable=1;editable=1;locked=0;connectable=1;" vertex="1" parent="BF9Q4GaVTIHr-r1WIZOA-3">
          <mxGeometry x="10" y="15" width="230" height="30" as="geometry" />
        </mxCell>
        <mxCell id="BF9Q4GaVTIHr-r1WIZOA-4" value="" style="group" vertex="1" connectable="0" parent="1">
          <mxGeometry x="610" y="560" width="250" height="60" as="geometry" />
        </mxCell>
        <mxCell id="BF9Q4GaVTIHr-r1WIZOA-5" value="" style="rounded=1;whiteSpace=wrap;html=1;movable=1;resizable=1;rotatable=1;deletable=1;editable=1;locked=0;connectable=1;" vertex="1" parent="BF9Q4GaVTIHr-r1WIZOA-4">
          <mxGeometry width="250" height="60" as="geometry" />
        </mxCell>
        <mxCell id="BF9Q4GaVTIHr-r1WIZOA-6" value="&lt;font style=&quot;font-size: 20px;&quot;&gt;Compilation&lt;/font&gt;" style="text;html=1;strokeColor=none;fillColor=none;align=center;verticalAlign=middle;whiteSpace=wrap;rounded=0;fontSize=20;fontStyle=3;fontColor=#FFA557;movable=1;resizable=1;rotatable=1;deletable=1;editable=1;locked=0;connectable=1;" vertex="1" parent="BF9Q4GaVTIHr-r1WIZOA-4">
          <mxGeometry x="10" y="15" width="230" height="30" as="geometry" />
        </mxCell>
        <mxCell id="BF9Q4GaVTIHr-r1WIZOA-7" value="" style="group" vertex="1" connectable="0" parent="1">
          <mxGeometry x="340" y="560" width="250" height="60" as="geometry" />
        </mxCell>
        <mxCell id="BF9Q4GaVTIHr-r1WIZOA-8" value="" style="rounded=1;whiteSpace=wrap;html=1;movable=1;resizable=1;rotatable=1;deletable=1;editable=1;locked=0;connectable=1;" vertex="1" parent="BF9Q4GaVTIHr-r1WIZOA-7">
          <mxGeometry width="250" height="60" as="geometry" />
        </mxCell>
        <mxCell id="BF9Q4GaVTIHr-r1WIZOA-9" value="&lt;font style=&quot;font-size: 20px;&quot;&gt;Distribution&lt;/font&gt;" style="text;html=1;strokeColor=none;fillColor=none;align=center;verticalAlign=middle;whiteSpace=wrap;rounded=0;fontSize=20;fontStyle=3;fontColor=#FFA557;movable=1;resizable=1;rotatable=1;deletable=1;editable=1;locked=0;connectable=1;" vertex="1" parent="BF9Q4GaVTIHr-r1WIZOA-7">
          <mxGeometry x="10" y="15" width="230" height="30" as="geometry" />
        </mxCell>
        <mxCell id="BF9Q4GaVTIHr-r1WIZOA-10" value="" style="group" vertex="1" connectable="0" parent="1">
          <mxGeometry x="880" y="560" width="260" height="60" as="geometry" />
        </mxCell>
        <mxCell id="BF9Q4GaVTIHr-r1WIZOA-11" value="" style="rounded=1;whiteSpace=wrap;html=1;movable=1;resizable=1;rotatable=1;deletable=1;editable=1;locked=0;connectable=1;" vertex="1" parent="BF9Q4GaVTIHr-r1WIZOA-10">
          <mxGeometry width="260" height="60" as="geometry" />
        </mxCell>
        <mxCell id="BF9Q4GaVTIHr-r1WIZOA-12" value="&lt;font style=&quot;font-size: 20px;&quot;&gt;Execution&lt;/font&gt;" style="text;html=1;strokeColor=none;fillColor=none;align=center;verticalAlign=middle;whiteSpace=wrap;rounded=0;fontSize=20;fontStyle=3;fontColor=#FFA557;movable=1;resizable=1;rotatable=1;deletable=1;editable=1;locked=0;connectable=1;" vertex="1" parent="BF9Q4GaVTIHr-r1WIZOA-10">
          <mxGeometry x="10.4" y="15" width="239.20000000000002" height="30" as="geometry" />
        </mxCell>
        <mxCell id="BF9Q4GaVTIHr-r1WIZOA-13" value="" style="rounded=1;whiteSpace=wrap;html=1;" vertex="1" parent="1">
          <mxGeometry x="340" y="640" width="810" height="300" as="geometry" />
        </mxCell>
        <mxCell id="8fYqs_rgSFELD76FwpnV-17" value="" style="ellipse;whiteSpace=wrap;html=1;aspect=fixed;container=0;" parent="1" vertex="1">
          <mxGeometry x="700" y="910" width="80" height="80" as="geometry" />
        </mxCell>
        <mxCell id="8fYqs_rgSFELD76FwpnV-16" value="" style="shape=image;verticalLabelPosition=bottom;labelBackgroundColor=default;verticalAlign=top;aspect=fixed;imageAspect=0;image=data:image/x-icon,AAABAAEAQEAAAAEAIAAoQgAAFgAAACgAAABAAAAAgAAAAAEAIAAAAAAAAEAAACMuAAAjLgAAAAAAAAAAAAAAAAAAAAAAAAAAAAAAAAAAAAAAAAAAAAAAAAAAAAAAAAAAAAAAAAAAAAAAAAAAAAAAAAAAAAAAAAAAAAAAAAAAAAAAAAAAAAAAAAAAAAAAAAAAAAAAAAAAAAAAAAAAAAAAAAAAAAAAAAAAAAAAAAAAAAAAAAAAAAAAAAAAAAAAAAAAAAAAAAAAAAAAAAAAAAAAAAAAAAAAAAAAAAAAAAAAAAAAAAAAAAAAAAAAAAAAAAAAAAAAAAAAAAAAAAAAAAAAAAAAAAAAAAAAAAAAAAAAAAAAAAAAAAAAAAAAAAAAAAAAAAAAAAAAAAAAAAAAAAAAAAAAAAAAAAAAAAAAAAAAAAAAAAAAAAAAAAAAAAAAAAAAAAAAAAAAAAAAAAAAAAAAAAAAAAAAAAAAAAAAAAAAAAAAAAAAAAAAAAAAAAAAAAAAAAAAAAAAAAAAAAAAAAAAAAAAAAAAAAAAAAAAAAAAAAAAAAAAAAAAAAAAAAAAAAAAAAAAAAAAAAAAAAAAAAAAAAAAAAAAAAAAAAAAAAAAAKf/AACn/wAAp/8AAKf/AACn/wAAp/8AAKf/AACn/wAAp/8AAAAAAAAAAAAAAAAAAAAAAAAAAAAAAAAAAAAAAAAAAAAAAAAAAAAAAAAAAAAAAAAAAAAAAAAAAAAAAAAAAAAAAAAAAAAAAAAAAAAAAAAAAAAAAAAAAAAAAAAAAAAAAAAAAAAAAAAAAAAAAAAAAAAAAAAAAAAAAAAAAAAAAAAAAAAAAAAAAAAAAAAAAAAAAAAAAAAAAAAAAAAAAAAAAAAAAAAAAAAAAAAAAAAAAAAAAAAAAAAAAAAAAAAAAAAAAAAAAAAAAAAAAAAAAAAAAKf/AACn/wAAp/8AAKf/AACn/wAAp/8AAKf/BACn/wgAp/8KAKf/CQCn/wUAp/8AAKf/AACn/wAAp/8AAKf/AACn/wAAAAAAAAAAAAAAAAAAAAAAAAAAAAAAAAAAAAAAAAAAAAAAAAAAAAAAAAAAAAAAAAAAAAAAAAAAAAAAAAAAAAAAAAAAAAAAAAAAAAAAAAAAAAAAAAAAAAAAAAAAAAAAAAAAAAAAAAAAAAAAAAAAAAAAAAAAAAAAAAAAAAAAAAAAAAAAAAAAAAAAAAAAAAAAAAAAAAAAAAAAAAAAAAAAAAAAAAAAAAAAAAAAAAAAAAAAAAAAAAAAp/8AAKf/AACn/wAAp/8FAKf/IQCn/0sAp/91AKf/mACn/7AAp/+9AKf/wgCn/74Ap/+yAKf/mwCn/3oAp/9PAKf/JQCn/wcAp/8AAKf/AACn/wAAAAAAAAAAAAAAAAAAAAAAAAAAAAAAAAAAAAAAAAAAAAAAAAAAAAAAAAAAAAAAAAAAAAAAAAAAAAAAAAAAAAAAAAAAAAAAAAAAAAAAAAAAAAAAAAAAAAAAAAAAAAAAAAAAAAAAAAAAAAAAAAAAAAAAAAAAAAAAAAAAAAAAAAAAAAAAAAAAAAAAAAAAAAAAAAAAAAAAAAAAAAAAAAAAAAAAAAAAAACn/wAAp/8AAKf/AACn/x0Ap/9hAKf/rACn/98Ap//4AKf//wCn//8Ap///AKf//wCn//8Ap///AKf//wCn//8Ap///AKf/+gCn/+MAp/+zAKf/aQCn/yMAp/8AAKf/AACn/wAAAAAAAAAAAAAAAAAAAAAAAAAAAAAAAAAAAAAAAAAAAAAAAAAAAAAAAAAAAAAAAAAAAAAAAAAAAAAAAAAAAAAAAAAAAAAAAAAAAAAAAAAAAAAAAAAAAAAAAAAAAAAAAAAAAAAAAAAAAAAAAAAAAAAAAAAAAAAAAAAAAAAAAAAAAAAAAAAAAAAAAAAAAAAAAAAAAAAAAKf/AACn/wAAp/8AAKf/IQCn/34Ap//WAKf//ACn//8Ap///AKf//wCn//8Ap///AKf//wCn//8Ap///AKf//wCn//8Ap///AKf//wCn//8Ap///AKf//wCn//4Ap//cAKf/iQCn/ykAp/8AAKf/AACn/wAAAAAAAAAAAAAAAAAAAAAAAAAAAAAAAAAAAAAAAAAAAAAAAAAAAAAAAAAAAAAAAAAAAAAAAAAAAAAAAAAAAAAAAAAAAAAAAAAAAAAAAAAAAAAAAAAAAAAAAAAAAAAAAAAAAAAAAAAAAAAAAAAAAAAAAAAAAAAAAAAAAAAAAAAAAAAAAAAAAAAAAKf/AACn/wAAp/8MAKf/ZgCn/9UAp///AKf//wCn//8Ap///AKf//wCn//8Ap///AKf//wCn//8Ap///AKf//wCn//8Ap///AKf//wCn//8Ap///AKf//wCn//8Ap///AKf//wCn//8Ap//dAKf/dACn/xEAp/8AAKf/AAAAAAAAAAAAAAAAAAAAAAAAAAAAAAAAAAAAAAAAAAAAAAAAAAAAAAAAAAAAAAAAAAAAAAAAAAAAAAAAAAAAAAAAAAAAAAAAAAAAAAAAAAAAAAAAAAAAAAAAAAAAAAAAAAAAAAAAAAAAAAAAAAAAAAAAAAAAAAAAAAAAAAAAAAAAAKf/AACn/wAAp/8lAKf/pwCn//kAp///AKf//wCn//8Ap///AKf//wCn//8Ap///AKf//wCn//8Ap///AKf//wCn//8Ap///AKf//wCn//8Ap///AKf//wCn//8Ap///AKf//wCn//8Ap///AKf//wCn//wAp/+1AKf/MACn/wAAp/8AAAAAAAAAAAAAAAAAAAAAAAAAAAAAAAAAAAAAAAAAAAAAAAAAAAAAAAAAAAAAAAAAAAAAAAAAAAAAAAAAAAAAAAAAAAAAAAAAAAAAAAAAAAAAAAAAAAAAAAAAAAAAAAAAAAAAAAAAAAAAAAAAAAAAAAAAAAAAAAAAAAAAAACn/wAAp/8zAKf/zACn//8Ap///AKf//wCn//8Ap///AKf//wCn//8Ap///AKf//wCn//8Ap///AKf//wCn//8Ap///AKf//wCn//8Ap///AKf//wCn//8Ap///AKf//wCn//8Ap///AKf//wCn//8Ap///AKf//wCn/9gAp/9LAKf/AACn/wAAAAAAAAAAAAAAAAAAAAAAAAAAAAAAAAAAAAAAAAAAAAAAAAAAAAAAAAAAAAAAAAAAAAAAAAAAAAAAAAAAAAAAAAAAAAAAAAAAAAAAAAAAAAAAAAAAAAAAAAAAAAAAAAAAAAAAAAAAAAAAAAAAAAAAAAAAAAAAAAAAp/8PAKf/ugCn//8Ap///AKf//wCn//8Ap///AKf//wCn//8Ap///AKf//wCn//8Ap///AKf//wCn//8Ap///AKf//wCn//8Ap///AKf//wCn//8Ap///AKf//wCn//8Ap///AKf//wCn//8Ap///AKf//wCn//8Ap///AKf/5gCn/1UAp/8BAKf/AAAAAAAAAAAAAAAAAAAAAAAAAAAAAAAAAAAAAAAAAAAAAAAAAAAAAAAAAAAAAAAAAAAAAAAAAAAAAAAAAAAAAAAAAAAAAAAAAAAAAAAAAAAAAAAAAAAAAAAAAAAAAAAAAAAAAAAAAAAAAAAAAAAAAAAAAAAAAKf/PQCn//QAp///AKf//wCn//8Ap///AKf//wCn//8Ap///AKf//wCn//8Ap///AKf//wCn//8Ap///AKf//wCn//8Ap///AKf//wCn//8Ap///AKf//wCn//8Ap///AKf//wCn//8Ap///AKf//wCn//8Ap///AKf//wCn//8Ap//nAKf/SwCn/wAAp/8AAAAAAAAAAAAAAAAAAAAAAAAAAAAAAAAAAAAAAAAAAAAAAAAAAAAAAAAAAAAAAAAAAAAAAAAAAAAAAAAAAAAAAAAAAAAAAAAAAAAAAAAAAAAAAAAAAAAAAAAAAAAAAAAAAAAAAAAAAAAAAAAAAAAAAACn/08Ap//7AKf//wCn//8Ap///AKf//wCn//8Ap///AKf//wCn//8Ap///AKf//ACn/98Ap/+yAKf/igCn/3EAp/9oAKf/bwCn/4cAp/+tAKf/2gCn//oAp///AKf//wCn//8Ap///AKf//wCn//8Ap///AKf//wCn//8Ap///AKf//wCn/9kAp/8wAKf/AAAAAAAAAAAAAAAAAAAAAAAAAAAAAAAAAAAAAAAAAAAAAAAAAAAAAAAAAAAAAAAAAAAAAAAAAAAAAAAAAAAAAAAAAAAAAAAAAAAAAAAAAAAAAAAAAAAAAAAAAAAAAAAAAAAAAAAAAAAAAAAAAAAAAAAAp/8wAKf/7ACn//8Ap///AKf//wCn//8Ap///AKf//wCn//8Ap//5AKf/vQCn/2IAp/8iAKf/BgCn/wAAp/8AAKf/AACn/wAAp/8AAKf/BACn/x0Ap/9YAKf/sgCn//UAp///AKf//wCn//8Ap///AKf//wCn//8Ap///AKf//wCn//8Ap///AKf/tQCn/xEAp/8AAAAAAAAAAAAAAAAAAAAAAAAAAAAAAAAAAAAAAAAAAAAAAAAAAAAAAAAAAAAAAAAAAAAAAAAAAAAAAAAAAAAAAAAAAAAAAAAAAAAAAAAAAAAAAAAAAAAAAAAAAAAAAAAAAAAAAAAAAAAAAAAAAKf/BwCn/5sAp///AKf//wCn//8Ap///AKf//wCn//8Ap//aAKf/ZACn/w8Ap/8AAKf/AACn/wAAp/8AAKf/AAAAAAAAp/8AAKf/AACn/wAAp/8AAKf/AACn/woAp/9VAKf/zgCn//8Ap///AKf//wCn//8Ap///AKf//wCn//8Ap///AKf//wCn//sAp/9xAKf/AQAAAAAAAAAAAAAAAAAAAAAAAAAAAAAAAAAAAAAAAAAAAAAAAAAAAAAAAAAAAAAAAAAAAAAAAAAAAAAAAAAAAAAAAAAAAAAAAAAAAAAAAAAAAAAAAAAAAAAAAAAAAAAAAAAAAAAAAAAAAAAAAACn/wAAp/8bAKf/pACn//MAp///AKf//wCn//YAp/+yAKf/LwCn/wAAp/8AAKf/AAAAAAAAAAAAAAAAAAAAAAAAAAAAAAAAAAAAAAAAAAAAAAAAAACn/wAAp/8AAKf/AACn/yMAp/+sAKf//gCn//8Ap///AKf//wCn//8Ap///AKf//wCn//8Ap///AKf/2wCn/yQAp/8AAAAAAAAAAAAAAAAAAAAAAAAAAAAAAAAAAAAAAAAAAAAAAAAAAAAAAAAAAAAAAAAAAAAAAAAAAAAAAAAAAAAAAAAAAAAAAAAAAAAAAAAAAAAAAAAAAAAAAAAAAAAAAAAAAAAAAAAAAAAAp/8AAKf/AACn/woAp/9DAKf/cgCn/3QAp/9IAKf/DgCn/wAAp/8AAAAAAAAAAAAAAAAAAAAAAAAAAAAAAAAAAAAAAAAAAAAAAAAAAAAAAAAAAAAAAAAAAAAAAACn/wAAp/8AAKf/FQCn/6cAp//+AKf//wCn//8Ap///AKf//wCn//8Ap///AKf//wCn//4Ap/9/AKf/AQAAAAAAAAAAAAAAAAAAAAAAAAAAAAAAAAAAAAAAAAAAAAAAAAAAAAAAAAAAAAAAAAAAAAAAAAAAAAAAAAAAAAAAAAAAAAAAAAAAAAAAAAAAAAAAAAAAAAAAAAAAAAAAAAAAAAAAAAAAAAAAAACn/wAAp/8AAKf/AACn/wAAp/8AAKf/AACn/wAAp/8AAAAAAAAAAAAAAAAAAAAAAAAAAAAAAAAAAAAAAAAAAAAAAAAAAAAAAAAAAAAAAAAAAAAAAAAAAAAAAAAAAKf/AACn/wAAp/8cAKf/wwCn//8Ap///AKf//wCn//8Ap///AKf//wCn//8Ap///AKf/0wCn/xkAAAAAAAAAAAAAAAAAAAAAAAAAAAAAAAAAAAAAAAAAAAAAAAAAAAAAAAAAAAAAAAAAAAAAAAAAAAAAAAAAAAAAAAAAAAAAAAAAAAAAAAAAAAAAAAAAAAAAAAAAAAAAAAAAAAAAAAAAAAAAAAAAAAAAAAAAAAAAAAAAAAAAAAAAAAAAAAAAAAAAAAAAAAAAAAAAAAAAAAAAAAAAAAAAAAAAAAAAAAAAAAAAAAAAAAAAAAAAAAAAAAAAAAAAAAAAAAAAAAAAAAAAAAAAAAAAp/8AAKf/AACn/0IAp//tAKf//wCn//8Ap///AKf//wCn//8Ap///AKf//wCn//oAp/9UAKf/AAAAAAAAAAAAAAAAAAAAAAAAAAAAAAAAAAAAAAAAAAAAAAAAAAAAAAAAAAAAAAAAAAAAAAAAAAAAAAAAAAAAAAAAAAAAAAAAAICAgACAgIAAgICAAICAgACAgIAAgICAAICAgACAgIAAgICAAICAgACAgIAAgICAAICAgACAgIAAgICAAICAgACAgIAAgICAAICAgACAgIAAgICAAICAgACAgIAAgICAAICAgACAgIAAgICAAAAAAAAAAAAAAAAAAAAAAAAAAAAAAAAAAACn/wAAp/8EAKf/mgCn//8Ap///AKf//wCn//8Ap///AKf//wCn//8Ap///AKf/lgCn/wEAAAAAAAAAAAAAAAAAAAAAAAAAAAAAAAAAAAAAAAAAAAAAAAAAAAAAAAAAAAAAAAAAAAAAAAAAAAAAAACAgIAAgICAAICAgACAgIAAgICAAICAgAyAgIAdgICAL4CAgDyAgIBDgICAQ4CAgEOAgIBDgICAQ4CAgEOAgIBDgICAQ4CAgEOAgIBDgICAQ4CAgEOAgIBDgICAQ4CAgEOAgIBDgICAQ4CAgEOAgIA/gICAIoCAgAKAgIAAgICAAAAAAAAAAAAAAAAAAAAAAAAAAAAAAKf/AACn/z8Ap//yAKf//wCn//8Ap///AKf//wCn//8Ap///AKf//wCn/8gAp/8OAAAAAAAAAAAAAAAAAAAAAAAAAAAAAAAAAAAAAAAAAAAAAAAAAAAAAAAAAAAAAAAAAAAAAICAgACAgIAAgICAAICAgASAgIAngICAX4CAgJeAgIDDgICA3oCAgO2AgID0gICA94CAgPeAgID3gICA94CAgPeAgID3gICA94CAgPeAgID3gICA94CAgPeAgID3gICA94CAgPeAgID3gICA94CAgPeAgID3gICA9YCAgOCAgICNgICAGICAgAAAAAAAAAAAAAAAAAAAAAAAAAAAAAAAAAAAp/8PAKf/yACn//8Ap///AKf//wCn//8Ap///AKf//wCn//8Ap//mAKf/JQAAAAAAAAAAAAAAAAAAAAAAAAAAAAAAAAAAAAAAAAAAAAAAAAAAAAAAAAAAgICAAICAgACAgIAAgICADYCAgE6AgIClgICA44CAgP2AgID/gICA/4CAgP+AgID/gICA/4CAgP+AgID/gICA/4CAgP+AgID/gICA/4CAgP+AgID/gICA/4CAgP+AgID/gICA/4CAgP+AgID/gICA/4CAgP+AgID/gICA/4CAgP+AgID/gICA/4CAgKWAgIANAAAAAAAAAAAAAAAAAAAAAAAAAAAAAAAAAKf/AQCn/5kAp///AKf//wCn//8Ap///AKf//wCn//8Ap///AKf/9ACn/zwAAAAAAAAAAAAAAAAAAAAAAAAAAAAAAAAAAAAAAAAAAAAAAAAAAAAAgICAAICAgACAgIAGgICATYCAgLmAgID2gICA/4CAgP+AgID/gICA/4CAgP+AgID/gICA/4CAgP+AgID/gICA/4CAgP+AgID/gICA/4CAgP+AgID/gICA/4CAgP+AgID/gICA/4CAgP+AgID/gICA/4CAgP+AgID/gICA/4CAgP+AgID/gICA/4CAgP+AgID4gICATgAAAAAAAAAAAAAAAAAAAAAAAAAAAAAAAACn/wAAp/94AKf//wCn//8Ap///AKf//wCn//8Ap///AKf//wCn//sAp/9NAAAAAAAAAAAAAAAAAAAAAAAAAAAAAAAAAAAAAAAAAAAAAAAAgICAAICAgACAgIAjgICAm4CAgPKAgID/gICA/4CAgP+AgID/gICA/4CAgP+AgID/gICA/4CAgP+AgID/gICA/4CAgP+AgID/gICA/4CAgP+AgID/gICA/4CAgP+AgID/gICA/4CAgP+AgID/gICA/4CAgP+AgID/gICA/4CAgP+AgID/gICA/4CAgP+AgID/gICA/4CAgIEAAAAAAAAAAAAAAAAAAAAAAAAAAAAAAAAAAAAAAKf/agCn//8Ap///AKf//wCn//8Ap///AKf//wCn//8Ap//9AKf/VAAAAAAAAAAAAAAAAAAAAAAAAAAAAAAAAAAAAAAAAAAAgICAAICAgACAgIBGgICAzoCAgP+AgID/gICA/4CAgP+AgID/gICA/4CAgP+AgID/gICA/4CAgP+AgID/gICA/4CAgP+AgID/gICA/4CAgP+AgID/gICA/4CAgP+AgID/gICA/4CAgP+AgID/gICA/4CAgP+AgID/gICA/4CAgP+AgID/gICA/4CAgP+AgID/gICA/4CAgP+AgIB6AAAAAAAAAAAAAAAAAAAAAAAAAAAAAAAAAKf/AACn/3AAp///AKf//wCn//8Ap///AKf//wCn//8Ap///AKf//ACn/1EAAAAAAAAAAAAAAAAAAAAAAAAAAAAAAAAAAAAAgICAAICAgAKAgIBdgICA5oCAgP+AgID/gICA/4CAgP+AgID/gICA/4CAgP+AgID/gICA/4CAgP+AgID/gICA/4CAgP+AgID/gICA/4CAgP+AgID/gICA/4CAgP+AgID/gICA/4CAgP+AgID/gICA/4CAgP+AgID/gICA/4CAgP+AgID/gICA/4CAgP+AgID/gICA/4CAgP+AgIDvgICAPQAAAAAAAAAAAAAAAAAAAAAAAAAAAAAAAACn/wAAp/+KAKf//wCn//8Ap///AKf//wCn//8Ap///AKf//wCn//cAp/9EAAAAAAAAAAAAAAAAAAAAAAAAAAAAAAAAgICAAICAgAGAgIBggICA7YCAgP+AgID/gICA/4CAgP+AgID/gICA/4CAgP+AgID/gICA/4CAgP+AgID/gICA/4CAgP+AgID/gICA/4CAgP+AgID/gICA/4CAgP+AgID/gICA/4CAgP+AgID/gICA/4CAgP+AgID/gICA/4CAgP+AgID/gICA/4CAgP+AgID/gICA/4CAgP+AgID3gICAgYCAgAUAAAAAAAAAAAAAAAAAAAAAAAAAAAAAAAAAp/8HAKf/tQCn//8Ap///AKf//wCn//8Ap///AKf//wCn//8Ap//tAKf/LwAAAAAAAAAAAAAAAAAAAAAAAAAAgICAAICAgACAgIBNgICA6oCAgP+AgID/gICA/4CAgP+AgID/gICA/4CAgP+AgID/gICA/4CAgP+AgID/gICA/4CAgP+AgID0gICA54CAgOCAgIDfgICA34CAgN+AgIDfgICA34CAgN+AgIDfgICA34CAgN+AgIDfgICA34CAgN+AgIDfgICA34CAgN+AgIDfgICA34CAgNuAgIC6gICAX4CAgAmAgIAAAAAAAAAAAAAAAAAAAAAAAAAAAAAAp/8AAKf/KACn/+UAp///AKf//wCn//8Ap///AKf//wCn//8Ap///AKf/1gCn/xcAAAAAAAAAAAAAAAAAAAAAAAAAAICAgACAgIAsgICA2ICAgP+AgID/gICA/4CAgP+AgID/gICA/4CAgP+AgID/gICA/4CAgP+AgID/gICA4oCAgKWAgIBngICAPYCAgCeAgIAfgICAHoCAgB6AgIAegICAHoCAgB6AgIAegICAHoCAgB6AgIAegICAHoCAgB6AgIAegICAHoCAgB6AgIAegICAHoCAgB6AgIAagICACoCAgACAgIAAAAAAAAAAAAAAAAAAAAAAAAAAAAAAAAAAAKf/AACn/3YAp//9AKf//wCn//8Ap///AKf//wCn//8Ap///AKf//wCn/60Ap/8FAAAAAAAAAAAAAAAAAAAAAICAgACAgIAMgICAq4CAgP+AgID/gICA/4CAgP+AgID/gICA/4CAgP+AgID/gICA/4CAgP+AgIDjgICAgoCAgCmAgIADgICAAICAgACAgIAAgICAAICAgACAgIAAgICAAICAgACAgIAAgICAAICAgACAgIAAgICAAICAgACAgIAAgICAAICAgACAgIAAgICAAICAgACAgIAAgICAAICAgACAgIAAAAAAAAAAAAAAAAAAAAAAAAAAAAAAAAAAAKf/AACn/yEAp//WAKf//wCn//8Ap///AKf//wCn//8Ap///AKf//wCn//4Ap/9vAKf/AAAAAAAAAAAAAAAAAAAAAACAgIAAgICAXoCAgPiAgID/gICA/4CAgP+AgID/gICA/4CAgP+AgID/gICA/4CAgP6AgIC1gICANICAgACAgIAAgICAAICAgAAAAAAAAAAAAAAAAAAAAAAAAAAAAAAAAAAAAAAAAAAAAAAAAAAAAAAAAAAAAAAAAAAAAAAAAAAAAAAAAAAAAAAAAAAAAAAAAAAAAAAAAAAAAAAAAAAAAAAAAAAAAAAAAAAAAAAAAAAAAAAAAAAAAAAAAKf/AACn/wcAp/+WAKf//gCn//8Ap///AKf//wCn//8Ap///AKf//wCn//8Ap//oAKf/LQCn/wAAAAAAAAAAAAAAAACAgIAAgICAFYCAgMmAgID/gICA/4CAgP+AgID/gICA/4CAgP+AgID/gICA/4CAgPyAgICagICAFYCAgACAgIAAAAAAAAAAAAAAAAAAAAAAAAAAAAAAAAAAAAAAAAAAAAAAAAAAAAAAAAAAAAAAAAAAAAAAAAAAAAAAAAAAAAAAAAAAAAAAAAAAAAAAAAAAAAAAAAAAAAAAAAAAAAAAAAAAAAAAAAAAAAAAAAAAAAAAAAAAAAAAAAAAAKf/AACn/wMAp/9vAKf/9gCn//8Ap///AKf//wCn//8Ap///AKf//wCn//8Ap///AKf/pQCn/wYAAAAAAAAAAAAAAAAAAAAAgICAAICAgF+AgID7gICA/4CAgP+AgID/gICA/4CAgP+AgID/gICA/4CAgP6AgICigICAEICAgACAgIAAAAAAAAAAAAAAAAAAAAAAAAAAAAAAAAAAAAAAAAAAAAAAAAAAAAAAAAAAAAAAAAAAAAAAAAAAAAAAAAAAAAAAAAAAAAAAAAAAAAAAAAAAAAAAAAAAAAAAAAAAAAAAAAAAAAAAAAAAAAAAAAAAAAAAAAAAAAAAp/8AAKf/AACn/wcAp/9vAKf/8ACn//8Ap///AKf//wCn//8Ap///AKf//wCn//8Ap///AKf/8QCn/0QAp/8AAAAAAAAAAAAAAAAAAAAAAICAgAiAgIC0gICA/4CAgP+AgID/gICA/4CAgP+AgID/gICA/4CAgP+AgIDJgICAHYCAgACAgIAAAAAAAAAAAAAAAAAAAAAAAAAAAAAAAAAAAAAAAAAAAAAAAAAAAAAAAAAAAAAAAAAAAAAAAAAAAAAAAAAAAAAAAAAAAAAAAAAAAAAAAAAAAAAAAAAAAAAAAAAAAAAAAAAAAAAAAAAAAAAAAAAAAKf/AACn/wAAp/8AAKf/AACn/x8Ap/+TAKf/9gCn//8Ap///AKf//wCn//8Ap///AKf//wCn//8Ap///AKf//wCn/6EAp/8HAKf/AAAAAAAAAAAAAAAAAAAAAACAgIAugICA6oCAgP+AgID/gICA/4CAgP+AgID/gICA/4CAgP+AgID0gICAUYCAgACAgIAAAAAAAAAAAAAAAAAAAAAAAAAAAAAAp/8AAKf/AACn/wAAp/8AAKf/AACn/wAAp/8AAKf/AACn/wAAp/8AAKf/AACn/wAAp/8AAKf/AACn/wAAp/8AAKf/AACn/wAAp/8AAKf/AACn/wAAp/8AAKf/AACn/wAAp/8BAKf/HQCn/2sAp//RAKf//wCn//8Ap///AKf//wCn//8Ap///AKf//wCn//8Ap///AKf//wCn/94Ap/8tAKf/AAAAAAAAAAAAAAAAAAAAAACAgIAAgICAZICAgP6AgID/gICA/4CAgP+AgID/gICA/4CAgP+AgID/gICAtoCAgAqAgIAAAAAAAAAAAAAAAAAAAAAAAAAAAAAAp/8AAKf/AACn/wQAp/8XAKf/HgCn/x4Ap/8eAKf/HgCn/x4Ap/8eAKf/HgCn/x4Ap/8eAKf/HgCn/x4Ap/8eAKf/HgCn/x4Ap/8eAKf/HgCn/x4Ap/8fAKf/JQCn/zgAp/9eAKf/mACn/9cAp//9AKf//wCn//8Ap///AKf//wCn//8Ap///AKf//wCn//8Ap///AKf//wCn//UAp/9hAKf/AACn/wAAAAAAAAAAAAAAAAAAAAAAgICAAYCAgJaAgID/gICA/4CAgP+AgID/gICA/4CAgP+AgID/gICA/ICAgGKAgIAAAAAAAAAAAAAAAAAAAAAAAAAAAAAAp/8AAKf/AQCn/zsAp/+kAKf/1gCn/98Ap//gAKf/4ACn/+AAp//gAKf/4ACn/+AAp//gAKf/4ACn/+AAp//gAKf/4ACn/+AAp//gAKf/4ACn/+AAp//gAKf/4ACn/+YAp//yAKf//gCn//8Ap///AKf//wCn//8Ap///AKf//wCn//8Ap///AKf//wCn//8Ap///AKf//wCn//wAp/+IAKf/BwCn/wAAAAAAAAAAAAAAAAAAAAAAAAAAAICAgAeAgIC6gICA/4CAgP+AgID/gICA/4CAgP+AgID/gICA/4CAgOiAgIAqgICAAAAAAAAAAAAAAAAAAAAAAAAAAAAAAKf/AACn/0gAp//jAKf//wCn//8Ap///AKf//wCn//8Ap///AKf//wCn//8Ap///AKf//wCn//8Ap///AKf//wCn//8Ap///AKf//wCn//8Ap///AKf//wCn//8Ap///AKf//wCn//8Ap///AKf//wCn//8Ap///AKf//wCn//8Ap///AKf//wCn//8Ap///AKf//wCn//wAp/+YAKf/DgCn/wAAAAAAAAAAAAAAAAAAAAAAAAAAAAAAAACAgIASgICA0ICAgP+AgID/gICA/4CAgP+AgID/gICA/4CAgP+AgIDMgICAEAAAAAAAAAAAAAAAAAAAAAAAAAAAAAAAAACn/xEAp//DAKf//wCn//8Ap///AKf//wCn//8Ap///AKf//wCn//8Ap///AKf//wCn//8Ap///AKf//wCn//8Ap///AKf//wCn//8Ap///AKf//wCn//8Ap///AKf//wCn//8Ap///AKf//wCn//8Ap///AKf//wCn//8Ap///AKf//wCn//8Ap///AKf//wCn//kAp/+RAKf/EACn/wAAAAAAAAAAAAAAAAAAAAAAAAAAAAAAAAAAAAAAgICAGYCAgNqAgID/gICA/4CAgP+AgID/gICA/4CAgP+AgID/gICAuICAgAYAAAAAAAAAAAAAAAAAAAAAAAAAAAAAAAAAp/81AKf/8QCn//8Ap///AKf//wCn//8Ap///AKf//wCn//8Ap///AKf//wCn//8Ap///AKf//wCn//8Ap///AKf//wCn//8Ap///AKf//wCn//8Ap///AKf//wCn//8Ap///AKf//wCn//8Ap///AKf//wCn//8Ap///AKf//wCn//8Ap///AKf//wCn/+oAp/9zAKf/CgCn/wAAp/8AAAAAAAAAAAAAAAAAAAAAAAAAAAAAAAAAAAAAAICAgBuAgIDcgICA/4CAgP+AgID/gICA/4CAgP+AgID/gICA/4CAgLOAgIAFAAAAAAAAAAAAAAAAAAAAAAAAAAAAAAAAAKf/OgCn//QAp///AKf//wCn//8Ap///AKf//wCn//8Ap///AKf//wCn//8Ap///AKf//wCn//8Ap///AKf//wCn//8Ap///AKf//wCn//8Ap///AKf//wCn//8Ap///AKf//wCn//8Ap///AKf//wCn//8Ap///AKf//wCn//8Ap///AKf//QCn/8AAp/9EAKf/AQCn/wAAAAAAAAAAAAAAAAAAAAAAAAAAAAAAAAAAAAAAAAAAAAAAAACAgIAXgICA14CAgP+AgID/gICA/4CAgP+AgID/gICA/4CAgP+AgIC+gICACQAAAAAAAAAAAAAAAAAAAAAAAAAAAAAAAACn/xkAp//UAKf//wCn//8Ap///AKf//wCn//8Ap///AKf//wCn//8Ap///AKf//wCn//8Ap///AKf//wCn//8Ap///AKf//wCn//8Ap///AKf//wCn//8Ap///AKf//wCn//8Ap///AKf//wCn//8Ap///AKf//wCn//8Ap//+AKf/0wCn/3AAp/8VAKf/AACn/wAAAAAAAAAAAAAAAAAAAAAAAAAAAAAAAAAAAAAAAAAAAAAAAAAAAAAAgICADoCAgMiAgID/gICA/4CAgP+AgID/gICA/4CAgP+AgID/gICA14CAgBgAAAAAAAAAAAAAAAAAAAAAAAAAAAAAAAAAp/8BAKf/ZQCn//QAp///AKf//wCn//8Ap///AKf//wCn//8Ap///AKf//wCn//8Ap///AKf//wCn//8Ap///AKf//wCn//8Ap///AKf//wCn//8Ap///AKf//wCn//8Ap///AKf//wCn//8Ap///AKf//wCn/+4Ap/+8AKf/agCn/x0Ap/8AAKf/AACn/wAAAAAAAAAAAAAAAAAAAAAAAAAAAAAAAAAAAAAAAAAAAAAAAAAAAAAAAAAAAICAgASAgICtgICA/4CAgP+AgID/gICA/4CAgP+AgID/gICA/4CAgPOAgIA9gICAAAAAAAAAAAAAAAAAAAAAAAAAAAAAAKf/AACn/wYAp/9hAKf/zACn//EAp//3AKf/9wCn//cAp//3AKf/9wCn//cAp//3AKf/9wCn//cAp//3AKf/9wCn//cAp//3AKf/9wCn//cAp//3AKf/9wCn//cAp//1AKf/7wCn/+MAp//MAKf/pgCn/3AAp/82AKf/DACn/wAAp/8AAKf/AAAAAAAAAAAAAAAAAAAAAAAAAAAAAAAAAAAAAAAAAAAAAAAAAAAAAAAAAAAAAAAAAAAAAACAgIAAgICAg4CAgP+AgID/gICA/4CAgP+AgID/gICA/4CAgP+AgID/gICAg4CAgAAAAAAAAAAAAAAAAAAAAAAAAAAAAAAAAAAAp/8AAKf/AACn/xUAp/83AKf/QgCn/0IAp/9CAKf/QgCn/0IAp/9CAKf/QgCn/0IAp/9CAKf/QgCn/0IAp/9CAKf/QgCn/0IAp/9CAKf/QgCn/0IAp/9CAKf/PQCn/zIAp/8iAKf/EACn/wIAp/8AAKf/AACn/wAAp/8AAAAAAAAAAAAAAAAAAAAAAAAAAAAAAAAAAAAAAAAAAAAAAAAAAAAAAAAAAAAAAAAAAAAAAAAAAAAAAAAAgICAAICAgE2AgID5gICA/4CAgP+AgID/gICA/4CAgP+AgID/gICA/4CAgNaAgIAegICAAAAAAAAAAAAAAAAAAAAAAAAAAAAAAAAAAACn/wAAp/8AAKf/AACn/wAAp/8AAKf/AACn/wAAp/8AAKf/AACn/wAAp/8AAKf/AACn/wAAp/8AAKf/AACn/wAAp/8AAKf/AACn/wAAp/8AAKf/AACn/wAAp/8AAKf/AACn/wAAp/8AAKf/AAAAAAAAAAAAAAAAAAAAAAAAAAAAAAAAAAAAAAAAAAAAAAAAAAAAAAAAAAAAAAAAAAAAAAAAAAAAAAAAAAAAAAAAAAAAAAAAAAAAAACAgIAbgICA2YCAgP+AgID/gICA/4CAgP+AgID/gICA/4CAgP+AgID9gICAg4CAgAKAgIAAAAAAAAAAAAAAAAAAAAAAAAAAAAAAAAAAAAAAAAAAAAAAAAAAAAAAAAAAAAAAAAAAAAAAAAAAAAAAAAAAAAAAAAAAAAAAAAAAAAAAAAAAAAAAAAAAAAAAAAAAAAAAAAAAAAAAAAAAAAAAAAAAAAAAAAAAAAAAAAAAAAAAAAAAAAAAAAAAAAAAAAAAAAAAAAAAAAAAAAAAAAAAAAAAAAAAAAAAAAAAAAAAAAAAAAAAAAAAAAAAAAAAAAAAAAAAAAAAAAAAAAAAAAAAAAAAgICAAoCAgJOAgID/gICA/4CAgP+AgID/gICA/4CAgP+AgID/gICA/4CAgOuAgIBKgICAAICAgAAAAAAAAAAAAAAAAAAAAAAAAAAAAAAAAAAAAAAAAAAAAAAAAAAAAAAAAAAAAAAAAAAAAAAAAAAAAAAAAAAAAAAAgICAAICAgACAgIAAgICAAICAgACAgIAAgICAAAAAAAAAAAAAAAAAAAAAAAAAAAAAAAAAAAAAAAAAAAAAAAAAAAAAAAAAAAAAAAAAAAAAAAAAAAAAAAAAAAAAAAAAAAAAAAAAAAAAAAAAAAAAAAAAAAAAAAAAAAAAAAAAAAAAAAAAAAAAAAAAAICAgACAgIA7gICA74CAgP+AgID/gICA/4CAgP+AgID/gICA/4CAgP+AgID/gICA2ICAgDmAgIAAgICAAAAAAAAAAAAAAAAAAAAAAAAAAAAAAAAAAAAAAAAAAAAAAAAAAAAAAAAAAAAAAAAAAAAAAACAgIAAgICAAICAgASAgIA1gICAbYCAgHqAgIBZgICAGoCAgACAgIAAAAAAAAAAAAAAAAAAAAAAAAAAAAAAAAAAAAAAAAAAAAAAAAAAAAAAAAAAAAAAAAAAAAAAAAAAAAAAAAAAAAAAAAAAAAAAAAAAAAAAAAAAAAAAAAAAAAAAAAAAAAAAAAAAAAAAAAAAAAAAAAAAgICABoCAgKGAgID/gICA/4CAgP+AgID/gICA/4CAgP+AgID/gICA/4CAgP+AgIDXgICASoCAgAGAgIAAgICAAAAAAAAAAAAAAAAAAAAAAAAAAAAAAAAAAAAAAAAAAAAAAAAAAICAgACAgIAAgICAAICAgBSAgICIgICA64CAgP+AgID/gICA/ICAgMyAgIBDgICAAAAAAAAAAAAAAAAAAAAAAAAAAAAAAAAAAAAAAAAAAAAAAAAAAAAAAAAAAAAAAAAAAAAAAAAAAAAAAAAAAAAAAAAAAAAAAAAAAAAAAAAAAAAAAAAAAAAAAAAAAAAAAAAAAAAAAAAAAAAAAAAAAICAgACAgIAzgICA5ICAgP+AgID/gICA/4CAgP+AgID/gICA/4CAgP+AgID/gICA/4CAgOuAgIB/gICAG4CAgACAgIAAgICAAICAgACAgIAAAAAAAAAAAACAgIAAgICAAICAgACAgIAAgICABYCAgECAgIC5gICA/oCAgP+AgID/gICA/4CAgP+AgID/gICA1oCAgCQAAAAAAAAAAAAAAAAAAAAAAAAAAAAAAAAAAAAAAAAAAAAAAAAAAAAAAAAAAAAAAAAAAAAAAAAAAAAAAAAAAAAAAAAAAAAAAAAAAAAAAAAAAAAAAAAAAAAAAAAAAAAAAAAAAAAAAAAAAAAAAACAgIAAgICAAYCAgHSAgID6gICA/4CAgP+AgID/gICA/4CAgP+AgID/gICA/4CAgP+AgID/gICA/oCAgNCAgIB2gICALYCAgAqAgIAAgICAAICAgACAgIAAgICAAICAgAKAgIAWgICASoCAgKCAgIDtgICA/4CAgP+AgID/gICA/4CAgP+AgID/gICA/4CAgP+AgIBzAAAAAAAAAAAAAAAAAAAAAAAAAAAAAAAAAAAAAAAAAAAAAAAAAAAAAAAAAAAAAAAAAAAAAAAAAAAAAAAAAAAAAAAAAAAAAAAAAAAAAAAAAAAAAAAAAAAAAAAAAAAAAAAAAAAAAAAAAAAAAAAAAAAAAICAgACAgIANgICApYCAgP+AgID/gICA/4CAgP+AgID/gICA/4CAgP+AgID/gICA/4CAgP+AgID/gICA/4CAgOiAgIC+gICAlICAgHeAgIBrgICAboCAgIKAgICmgICA0oCAgPaAgID/gICA/4CAgP+AgID/gICA/4CAgP+AgID/gICA/4CAgP+AgID/gICAmQAAAAAAAAAAAAAAAAAAAAAAAAAAAAAAAAAAAAAAAAAAAAAAAAAAAAAAAAAAAAAAAAAAAAAAAAAAAAAAAAAAAAAAAAAAAAAAAAAAAAAAAAAAAAAAAAAAAAAAAAAAAAAAAAAAAAAAAAAAAAAAAAAAAAAAAAAAgICAAICAgB6AgIC9gICA/4CAgP+AgID/gICA/4CAgP+AgID/gICA/4CAgP+AgID/gICA/4CAgP+AgID/gICA/4CAgP+AgID/gICA/4CAgP+AgID/gICA/4CAgP+AgID/gICA/4CAgP+AgID/gICA/4CAgP+AgID/gICA/4CAgP+AgID/gICA/4CAgIMAAAAAAAAAAAAAAAAAAAAAAAAAAAAAAAAAAAAAAAAAAAAAAAAAAAAAAAAAAAAAAAAAAAAAAAAAAAAAAAAAAAAAAAAAAAAAAAAAAAAAAAAAAAAAAAAAAAAAAAAAAAAAAAAAAAAAAAAAAAAAAAAAAAAAAAAAAICAgACAgIAAgICAJ4CAgMCAgID/gICA/4CAgP+AgID/gICA/4CAgP+AgID/gICA/4CAgP+AgID/gICA/4CAgP+AgID/gICA/4CAgP+AgID/gICA/4CAgP+AgID/gICA/4CAgP+AgID/gICA/4CAgP+AgID/gICA/4CAgP+AgID/gICA/4CAgOmAgIA3AAAAAAAAAAAAAAAAAAAAAAAAAAAAAAAAAAAAAAAAAAAAAAAAAAAAAAAAAAAAAAAAAAAAAAAAAAAAAAAAAAAAAAAAAAAAAAAAAAAAAAAAAAAAAAAAAAAAAAAAAAAAAAAAAAAAAAAAAAAAAAAAAAAAAAAAAAAAAAAAgICAAICAgACAgIAigICAr4CAgP6AgID/gICA/4CAgP+AgID/gICA/4CAgP+AgID/gICA/4CAgP+AgID/gICA/4CAgP+AgID/gICA/4CAgP+AgID/gICA/4CAgP+AgID/gICA/4CAgP+AgID/gICA/4CAgP+AgID/gICA/4CAgOqAgIBkgICAAgAAAAAAAAAAAAAAAAAAAAAAAAAAAAAAAAAAAAAAAAAAAAAAAAAAAAAAAAAAAAAAAAAAAAAAAAAAAAAAAAAAAAAAAAAAAAAAAAAAAAAAAAAAAAAAAAAAAAAAAAAAAAAAAAAAAAAAAAAAAAAAAAAAAAAAAAAAAAAAAAAAAACAgIAAgICAAICAgBOAgICHgICA74CAgP+AgID/gICA/4CAgP+AgID/gICA/4CAgP+AgID/gICA/4CAgP+AgID/gICA/4CAgP+AgID/gICA/4CAgP+AgID/gICA/4CAgP+AgID/gICA/4CAgP+AgID/gICA/4CAgM2AgIBKgICAAoCAgAAAAAAAAAAAAAAAAAAAAAAAAAAAAAAAAAAAAAAAAAAAAAAAAAAAAAAAAAAAAAAAAAAAAAAAAAAAAAAAAAAAAAAAAAAAAAAAAAAAAAAAAAAAAAAAAAAAAAAAAAAAAAAAAAAAAAAAAAAAAAAAAAAAAAAAAAAAAAAAAAAAAAAAAAAAAICAgACAgIAAgICABICAgEqAgIDAgICA+4CAgP+AgID/gICA/4CAgP+AgID/gICA/4CAgP+AgID/gICA/4CAgP+AgID/gICA/4CAgP+AgID/gICA/4CAgP+AgID/gICA/4CAgP+AgID/gICA6oCAgI6AgIAggICAAICAgAAAAAAAAAAAAAAAAAAAAAAAAAAAAAAAAAAAAAAAAAAAAAAAAAAAAAAAAAAAAAAAAAAAAAAAAAAAAAAAAAAAAAAAAAAAAAAAAAAAAAAAAAAAAAAAAAAAAAAAAAAAAAAAAAAAAAAAAAAAAAAAAAAAAAAAAAAAAAAAAAAAAAAAAAAAAAAAAAAAAAAAAAAAAICAgACAgIAAgICAE4CAgGWAgIDEgICA94CAgP+AgID/gICA/4CAgP+AgID/gICA/4CAgP+AgID/gICA/4CAgP+AgID/gICA/4CAgP+AgID/gICA/4CAgP+AgIDngICAnoCAgDqAgIADgICAAICAgAAAAAAAAAAAAAAAAAAAAAAAAAAAAAAAAAAAAAAAAAAAAAAAAAAAAAAAAAAAAAAAAAAAAAAAAAAAAAAAAAAAAAAAAAAAAAAAAAAAAAAAAAAAAAAAAAAAAAAAAAAAAAAAAAAAAAAAAAAAAAAAAAAAAAAAAAAAAAAAAAAAAAAAAAAAAAAAAAAAAAAAAAAAAAAAAAAAAAAAgICAAICAgACAgIAAgICAEoCAgE6AgICbgICA1YCAgPSAgID/gICA/4CAgP+AgID/gICA/4CAgP+AgID/gICA/4CAgP+AgID8gICA6YCAgL+AgIB5gICAL4CAgASAgIAAgICAAAAAAAAAAAAAAAAAAAAAAAAAAAAAAAAAAAAAAAAAAAAAAAAAAAAAAAAAAAAAAAAAAAAAAAAAAAAAAAAAAAAAAAAAAAAAAAAAAAAAAAAAAAAAAAAAAAAAAAAAAAAAAAAAAAAAAAAAAAAAAAAAAAAAAAAAAAAAAAAAAAAAAAAAAAAAAAAAAAAAAAAAAAAAAAAAAAAAAAAAAAAAAAAAAAAAAAAAAAAAgICAAICAgACAgIAAgICAAYCAgBiAgIA/gICAa4CAgJCAgICqgICAuoCAgMCAgIC+gICAtICAgKCAgICAgICAWICAgC2AgIAMgICAAICAgACAgIAAgICAAAAAAAAAAAAAAAAAAAAAAAAAAAAAAAAAAAAAAAAAAAAAAAAAAAAAAAAAAAAAAAAAAAAAAAAAAAAAAAAAAAAAAAAAAAAAAAAAAAAAAAAAAAAAAAAAAAAAAAAAAAAAAAAAAAAAAAAAAAAAAAAAAAAAAAAAAAAAAAAAAAAAAAAAAAAAAAAAAAAAAAAAAAAAAAAAAAAAAAAAAAAAAAAAAAAAAAAAAAAAAAAAAAAAAAAAAAAAgICAAICAgACAgIAAgICAAICAgACAgIAAgICAA4CAgAeAgIAKgICACYCAgAWAgIAAgICAAICAgACAgIAAgICAAICAgAAAAAAAAAAAAAAAAAAAAAAAAAAAAAAAAAAAAAAAAAAAAAAAAAAAAAAAAAAAAAAAAAAAAAAAAAAAAAAAAAAAAAAAAAAAAAAAAAAAAAAAAAAAAAAAAAAAAAAAAAAAAAAAAAAAAAAAAAAAAAAAAAAAAAAAAAAAAAAAAAAAAAAAAAAAAAAAAAAAAAAAAAAAAAAAAAAAAAAAAAAAAAAAAAAAAAAAAAAAAAAAAAAAAAAAAAAAAAAAAAAAAAAAAAAAAAAAAAAAAAAAAAAAAAAAAACAgIAAgICAAICAgACAgIAAgICAAICAgACAgIAAgICAAICAgAAAAAAAAAAAAAAAAAAAAAAAAAAAAAAAAAAAAAAAAAAAAAAAAAAAAAAAAAAAAAAAAAAAAAAAAAAAAAAAAAAAAAAAAAAAAAAAAAAAAAAAAAAAAAAAAAAAAAAAAAAAAAAAAAAAAAAAAAAAAAAAAAAAAAAAAAAAAAAAAAAAAAAAAAAAAAAAAAAAAAAAAAAAAAAAAAAAAAAAAAAAAAAAAAAAAAAAAAAAAAAAAAAAAAAAAAAAAAAAAAAAAAAAAAAAAAAAAAAAAAAAAAAAAAAAAAAAAAAAAAAAAAAAAAAAAAAAAAAAAAAAAAAAAAAAAAAAAAAAAAAAAAAAAAAAAAAAAAAAAAAAAAAAAAAAAAAAAAAAAAAAAAAAAAAAAAAAAAAAAAAAAAAAAAAAAAAAAAAAAAAAAAAAAAAAAAAAAAAAAAAAAAAAAAAAAAAAAAAAAAAAAAAAAAAAAAAAAAAAAAAAAAAAAAAAAAAAAAAAAAAAAAAAAAAAAAAAAAAAAAAAAAAAAAAAAAAAAAAAAAAAAAAAAAAAAAAA///////////////////////////8H////////4AA///////+AAAf//////gAAA//////4AAAA//////AAAAB/////4AAAAB/////AAAAAD////8AAAAAP////wAAAAAf////AAPgAA////8AH/wAB////4B//wAH////wP//gAP////////AA////////+AD////////4AH//+AAAA/wAf/+AAAAB/AB//gAAAAD8AH/4AAAAAP4Af/AAAAAA/gB/wAAAAAD+AH+AAAAAAP4AfwAAAAAA/AB/AAAAAAH8AH4AAAAAB/wAfAAD////+AD8AB/////wAPgAP////+AA+AB/////wAHwAP////+AAfAB/////AAD8AH+AAAAAAPgA/gAAAAAB+AD+AAAAAAP4APwAAAAAB/gA/AAAAAAP+AD8AAAAAB/4APwAAAAAf/gA/AAAAAH/+AD+AAAAB//8AH+AAAA///wAf////////AA////////8AD////////4AH//wP////gAH/+Af////AAP/gA////8AAHwAD////4AAAAAP////wAAAAA/////gAAAAD/////AAAAAP////+AAAAB/////8AAAAf/////8AAAD//////8AAA///////8AAf////////gf//////////////////////////8=;container=0;" parent="1" vertex="1">
          <mxGeometry x="708" y="918" width="64" height="64" as="geometry" />
        </mxCell>
        <mxCell id="BF9Q4GaVTIHr-r1WIZOA-16" value="Local environment" style="text;html=1;strokeColor=none;fillColor=none;align=center;verticalAlign=middle;whiteSpace=wrap;rounded=0;fontStyle=1" vertex="1" parent="1">
          <mxGeometry x="127.25" y="1000" width="128.5" height="30" as="geometry" />
        </mxCell>
        <mxCell id="BF9Q4GaVTIHr-r1WIZOA-17" value="Taple Node" style="text;html=1;strokeColor=none;fillColor=none;align=center;verticalAlign=middle;whiteSpace=wrap;rounded=0;fontStyle=1" vertex="1" parent="1">
          <mxGeometry x="675.75" y="1000" width="128.5" height="30" as="geometry" />
        </mxCell>
        <mxCell id="BF9Q4GaVTIHr-r1WIZOA-19" value="" style="group" vertex="1" connectable="0" parent="1">
          <mxGeometry x="370" y="660" width="209" height="250" as="geometry" />
        </mxCell>
        <mxCell id="8fYqs_rgSFELD76FwpnV-33" value="" style="endArrow=none;html=1;rounded=0;" parent="BF9Q4GaVTIHr-r1WIZOA-19" edge="1">
          <mxGeometry width="50" height="50" relative="1" as="geometry">
            <mxPoint y="133.69565217391303" as="sourcePoint" />
            <mxPoint x="186.02094240837695" y="133.69565217391303" as="targetPoint" />
          </mxGeometry>
        </mxCell>
        <mxCell id="8fYqs_rgSFELD76FwpnV-34" value="" style="endArrow=none;html=1;rounded=0;" parent="BF9Q4GaVTIHr-r1WIZOA-19" edge="1">
          <mxGeometry width="50" height="50" relative="1" as="geometry">
            <mxPoint y="181.52173913043478" as="sourcePoint" />
            <mxPoint x="186.02094240837695" y="181.52173913043478" as="targetPoint" />
          </mxGeometry>
        </mxCell>
        <mxCell id="8fYqs_rgSFELD76FwpnV-20" value="" style="rounded=1;whiteSpace=wrap;html=1;fillColor=#fad7ac;strokeColor=#b46504;container=0;" parent="BF9Q4GaVTIHr-r1WIZOA-19" vertex="1">
          <mxGeometry x="1.094240837696335" width="186.02094240837695" height="228.26086956521738" as="geometry" />
        </mxCell>
        <mxCell id="8fYqs_rgSFELD76FwpnV-23" value="" style="rounded=0;whiteSpace=wrap;html=1;container=0;" parent="BF9Q4GaVTIHr-r1WIZOA-19" vertex="1">
          <mxGeometry x="1.094240837696335" y="43.47826086956522" width="186.02094240837695" height="184.78260869565216" as="geometry" />
        </mxCell>
        <mxCell id="8fYqs_rgSFELD76FwpnV-32" value="" style="endArrow=none;html=1;rounded=0;" parent="BF9Q4GaVTIHr-r1WIZOA-19" edge="1">
          <mxGeometry width="50" height="50" relative="1" as="geometry">
            <mxPoint x="1.094240837696335" y="86.95652173913044" as="sourcePoint" />
            <mxPoint x="187.1151832460733" y="86.95652173913044" as="targetPoint" />
          </mxGeometry>
        </mxCell>
        <mxCell id="8fYqs_rgSFELD76FwpnV-35" value="Schema" style="text;html=1;strokeColor=none;fillColor=none;align=left;verticalAlign=middle;whiteSpace=wrap;rounded=0;container=0;" parent="BF9Q4GaVTIHr-r1WIZOA-19" vertex="1">
          <mxGeometry x="12.036649214659686" y="54.347826086956516" width="120.36649214659685" height="32.608695652173914" as="geometry" />
        </mxCell>
        <mxCell id="8fYqs_rgSFELD76FwpnV-36" value="Contract Base64" style="text;html=1;strokeColor=#b85450;fillColor=#f8cecc;align=left;verticalAlign=middle;whiteSpace=wrap;rounded=0;container=0;" parent="BF9Q4GaVTIHr-r1WIZOA-19" vertex="1">
          <mxGeometry x="1.094240837696335" y="85.8695652173913" width="186.02094240837695" height="46.73913043478261" as="geometry" />
        </mxCell>
        <mxCell id="8fYqs_rgSFELD76FwpnV-37" value="Members" style="text;html=1;strokeColor=none;fillColor=none;align=left;verticalAlign=middle;whiteSpace=wrap;rounded=0;container=0;" parent="BF9Q4GaVTIHr-r1WIZOA-19" vertex="1">
          <mxGeometry x="12.036649214659686" y="141.30434782608694" width="120.36649214659685" height="32.608695652173914" as="geometry" />
        </mxCell>
        <mxCell id="8fYqs_rgSFELD76FwpnV-38" value="Roles" style="text;html=1;strokeColor=none;fillColor=none;align=left;verticalAlign=middle;whiteSpace=wrap;rounded=0;container=0;" parent="BF9Q4GaVTIHr-r1WIZOA-19" vertex="1">
          <mxGeometry x="12.036649214659686" y="184.78260869565216" width="120.36649214659685" height="32.608695652173914" as="geometry" />
        </mxCell>
        <mxCell id="8fYqs_rgSFELD76FwpnV-39" value="Governance" style="text;html=1;strokeColor=none;fillColor=none;align=center;verticalAlign=middle;whiteSpace=wrap;rounded=0;fontStyle=1;fontSize=13;container=0;" parent="BF9Q4GaVTIHr-r1WIZOA-19" vertex="1">
          <mxGeometry x="33.92146596858639" y="7.608695652173912" width="120.36649214659685" height="32.608695652173914" as="geometry" />
        </mxCell>
        <mxCell id="8fYqs_rgSFELD76FwpnV-52" value="" style="endArrow=none;html=1;rounded=0;" parent="BF9Q4GaVTIHr-r1WIZOA-19" edge="1">
          <mxGeometry width="50" height="50" relative="1" as="geometry">
            <mxPoint x="10.94240837696335" y="144.56521739130434" as="sourcePoint" />
            <mxPoint x="196.9633507853403" y="144.56521739130434" as="targetPoint" />
          </mxGeometry>
        </mxCell>
        <mxCell id="8fYqs_rgSFELD76FwpnV-53" value="" style="endArrow=none;html=1;rounded=0;" parent="BF9Q4GaVTIHr-r1WIZOA-19" edge="1">
          <mxGeometry width="50" height="50" relative="1" as="geometry">
            <mxPoint x="10.94240837696335" y="192.39130434782606" as="sourcePoint" />
            <mxPoint x="196.9633507853403" y="192.39130434782606" as="targetPoint" />
          </mxGeometry>
        </mxCell>
        <mxCell id="8fYqs_rgSFELD76FwpnV-44" value="" style="rounded=1;whiteSpace=wrap;html=1;fillColor=#fad7ac;strokeColor=#b46504;container=0;" parent="BF9Q4GaVTIHr-r1WIZOA-19" vertex="1">
          <mxGeometry x="12.036649214659686" y="10.869565217391305" width="186.02094240837695" height="228.26086956521738" as="geometry" />
        </mxCell>
        <mxCell id="8fYqs_rgSFELD76FwpnV-45" value="" style="rounded=0;whiteSpace=wrap;html=1;container=0;" parent="BF9Q4GaVTIHr-r1WIZOA-19" vertex="1">
          <mxGeometry x="12.036649214659686" y="54.347826086956516" width="186.02094240837695" height="184.78260869565216" as="geometry" />
        </mxCell>
        <mxCell id="8fYqs_rgSFELD76FwpnV-46" value="" style="endArrow=none;html=1;rounded=0;" parent="BF9Q4GaVTIHr-r1WIZOA-19" edge="1">
          <mxGeometry width="50" height="50" relative="1" as="geometry">
            <mxPoint x="12.036649214659686" y="97.82608695652173" as="sourcePoint" />
            <mxPoint x="198.05759162303664" y="97.82608695652173" as="targetPoint" />
          </mxGeometry>
        </mxCell>
        <mxCell id="8fYqs_rgSFELD76FwpnV-47" value="Schema" style="text;html=1;strokeColor=none;fillColor=none;align=left;verticalAlign=middle;whiteSpace=wrap;rounded=0;container=0;" parent="BF9Q4GaVTIHr-r1WIZOA-19" vertex="1">
          <mxGeometry x="22.979057591623036" y="65.21739130434783" width="120.36649214659685" height="32.608695652173914" as="geometry" />
        </mxCell>
        <mxCell id="8fYqs_rgSFELD76FwpnV-48" value="Contract Base64" style="text;html=1;strokeColor=#b85450;fillColor=#f8cecc;align=left;verticalAlign=middle;whiteSpace=wrap;rounded=0;container=0;" parent="BF9Q4GaVTIHr-r1WIZOA-19" vertex="1">
          <mxGeometry x="12.036649214659686" y="96.73913043478261" width="186.02094240837695" height="46.73913043478261" as="geometry" />
        </mxCell>
        <mxCell id="8fYqs_rgSFELD76FwpnV-49" value="Members" style="text;html=1;strokeColor=none;fillColor=none;align=left;verticalAlign=middle;whiteSpace=wrap;rounded=0;container=0;" parent="BF9Q4GaVTIHr-r1WIZOA-19" vertex="1">
          <mxGeometry x="22.979057591623036" y="152.17391304347825" width="120.36649214659685" height="32.608695652173914" as="geometry" />
        </mxCell>
        <mxCell id="8fYqs_rgSFELD76FwpnV-50" value="Roles" style="text;html=1;strokeColor=none;fillColor=none;align=left;verticalAlign=middle;whiteSpace=wrap;rounded=0;container=0;" parent="BF9Q4GaVTIHr-r1WIZOA-19" vertex="1">
          <mxGeometry x="22.979057591623036" y="195.65217391304347" width="120.36649214659685" height="32.608695652173914" as="geometry" />
        </mxCell>
        <mxCell id="8fYqs_rgSFELD76FwpnV-51" value="Governance" style="text;html=1;strokeColor=none;fillColor=none;align=center;verticalAlign=middle;whiteSpace=wrap;rounded=0;fontStyle=1;fontSize=13;container=0;" parent="BF9Q4GaVTIHr-r1WIZOA-19" vertex="1">
          <mxGeometry x="44.86387434554974" y="18.478260869565215" width="120.36649214659685" height="32.608695652173914" as="geometry" />
        </mxCell>
        <mxCell id="8fYqs_rgSFELD76FwpnV-64" value="" style="endArrow=none;html=1;rounded=0;" parent="BF9Q4GaVTIHr-r1WIZOA-19" edge="1">
          <mxGeometry width="50" height="50" relative="1" as="geometry">
            <mxPoint x="21.8848167539267" y="155.43478260869566" as="sourcePoint" />
            <mxPoint x="207.90575916230367" y="155.43478260869566" as="targetPoint" />
          </mxGeometry>
        </mxCell>
        <mxCell id="8fYqs_rgSFELD76FwpnV-65" value="" style="endArrow=none;html=1;rounded=0;" parent="BF9Q4GaVTIHr-r1WIZOA-19" edge="1">
          <mxGeometry width="50" height="50" relative="1" as="geometry">
            <mxPoint x="21.8848167539267" y="203.26086956521738" as="sourcePoint" />
            <mxPoint x="207.90575916230367" y="203.26086956521738" as="targetPoint" />
          </mxGeometry>
        </mxCell>
        <mxCell id="8fYqs_rgSFELD76FwpnV-56" value="" style="rounded=1;whiteSpace=wrap;html=1;fillColor=#fad7ac;strokeColor=#b46504;container=0;" parent="BF9Q4GaVTIHr-r1WIZOA-19" vertex="1">
          <mxGeometry x="22.979057591623036" y="21.73913043478261" width="186.02094240837695" height="228.26086956521738" as="geometry" />
        </mxCell>
        <mxCell id="8fYqs_rgSFELD76FwpnV-57" value="" style="rounded=0;whiteSpace=wrap;html=1;container=0;" parent="BF9Q4GaVTIHr-r1WIZOA-19" vertex="1">
          <mxGeometry x="22.979057591623036" y="65.21739130434783" width="186.02094240837695" height="184.78260869565216" as="geometry" />
        </mxCell>
        <mxCell id="8fYqs_rgSFELD76FwpnV-58" value="" style="endArrow=none;html=1;rounded=0;" parent="BF9Q4GaVTIHr-r1WIZOA-19" edge="1">
          <mxGeometry width="50" height="50" relative="1" as="geometry">
            <mxPoint x="22.979057591623036" y="108.69565217391303" as="sourcePoint" />
            <mxPoint x="209" y="108.69565217391303" as="targetPoint" />
          </mxGeometry>
        </mxCell>
        <mxCell id="8fYqs_rgSFELD76FwpnV-59" value="Schema" style="text;html=1;strokeColor=none;fillColor=none;align=left;verticalAlign=middle;whiteSpace=wrap;rounded=0;container=0;" parent="BF9Q4GaVTIHr-r1WIZOA-19" vertex="1">
          <mxGeometry x="33.92146596858639" y="76.08695652173913" width="120.36649214659685" height="32.608695652173914" as="geometry" />
        </mxCell>
        <mxCell id="8fYqs_rgSFELD76FwpnV-60" value="Contract Base64" style="text;html=1;strokeColor=#b85450;fillColor=#f8cecc;align=left;verticalAlign=middle;whiteSpace=wrap;rounded=0;container=0;" parent="BF9Q4GaVTIHr-r1WIZOA-19" vertex="1">
          <mxGeometry x="22.979057591623036" y="107.6086956521739" width="186.02094240837695" height="46.73913043478261" as="geometry" />
        </mxCell>
        <mxCell id="8fYqs_rgSFELD76FwpnV-61" value="Members" style="text;html=1;strokeColor=none;fillColor=none;align=left;verticalAlign=middle;whiteSpace=wrap;rounded=0;container=0;" parent="BF9Q4GaVTIHr-r1WIZOA-19" vertex="1">
          <mxGeometry x="33.92146596858639" y="163.04347826086956" width="120.36649214659685" height="32.608695652173914" as="geometry" />
        </mxCell>
        <mxCell id="8fYqs_rgSFELD76FwpnV-62" value="Roles" style="text;html=1;strokeColor=none;fillColor=none;align=left;verticalAlign=middle;whiteSpace=wrap;rounded=0;container=0;" parent="BF9Q4GaVTIHr-r1WIZOA-19" vertex="1">
          <mxGeometry x="33.92146596858639" y="206.52173913043478" width="120.36649214659685" height="32.608695652173914" as="geometry" />
        </mxCell>
        <mxCell id="8fYqs_rgSFELD76FwpnV-63" value="Governance" style="text;html=1;strokeColor=none;fillColor=none;align=center;verticalAlign=middle;whiteSpace=wrap;rounded=0;fontStyle=1;fontSize=13;container=0;" parent="BF9Q4GaVTIHr-r1WIZOA-19" vertex="1">
          <mxGeometry x="55.80628272251309" y="29.34782608695652" width="120.36649214659685" height="32.608695652173914" as="geometry" />
        </mxCell>
        <mxCell id="BF9Q4GaVTIHr-r1WIZOA-49" style="edgeStyle=orthogonalEdgeStyle;rounded=0;orthogonalLoop=1;jettySize=auto;html=1;exitX=1;exitY=0.5;exitDx=0;exitDy=0;entryX=0;entryY=0.5;entryDx=0;entryDy=0;strokeWidth=4;strokeColor=#FFAD66;" edge="1" parent="1" source="8fYqs_rgSFELD76FwpnV-71" target="BF9Q4GaVTIHr-r1WIZOA-47">
          <mxGeometry relative="1" as="geometry" />
        </mxCell>
        <mxCell id="8fYqs_rgSFELD76FwpnV-71" value="&lt;pre style=&quot;letter-spacing:3px&quot;&gt;&lt;pre style=&quot;border-color: var(--border-color);&quot;&gt;&lt;b style=&quot;border-color: var(--border-color);&quot;&gt;&lt;font style=&quot;border-color: var(--border-color); font-size: 16px;&quot; color=&quot;#808080&quot;&gt;WASM&lt;/font&gt;&lt;/b&gt;&lt;/pre&gt;&lt;/pre&gt;" style="ellipse;whiteSpace=wrap;html=1;aspect=fixed;fontFamily=Courier New;spacing=2;noLabel=0;" parent="1" vertex="1">
          <mxGeometry x="845" y="750" width="80" height="80" as="geometry" />
        </mxCell>
        <mxCell id="BF9Q4GaVTIHr-r1WIZOA-24" value="" style="group" vertex="1" connectable="0" parent="1">
          <mxGeometry x="121.5" y="710" width="140" height="160" as="geometry" />
        </mxCell>
        <mxCell id="8fYqs_rgSFELD76FwpnV-1" value="" style="rounded=1;whiteSpace=wrap;html=1;container=0;" parent="BF9Q4GaVTIHr-r1WIZOA-24" vertex="1">
          <mxGeometry width="140" height="140" as="geometry" />
        </mxCell>
        <mxCell id="8fYqs_rgSFELD76FwpnV-2" value="SDK" style="rounded=1;whiteSpace=wrap;html=1;fillColor=#d5e8d4;strokeColor=#82b366;container=0;" parent="BF9Q4GaVTIHr-r1WIZOA-24" vertex="1">
          <mxGeometry x="10" y="20" width="120" height="30" as="geometry" />
        </mxCell>
        <mxCell id="BF9Q4GaVTIHr-r1WIZOA-25" style="edgeStyle=orthogonalEdgeStyle;rounded=0;orthogonalLoop=1;jettySize=auto;html=1;exitX=1;exitY=0.5;exitDx=0;exitDy=0;fontColor=#FFA557;strokeColor=#FFA557;strokeWidth=4;" edge="1" parent="BF9Q4GaVTIHr-r1WIZOA-24" source="8fYqs_rgSFELD76FwpnV-5">
          <mxGeometry relative="1" as="geometry">
            <mxPoint x="248.5" y="75" as="targetPoint" />
          </mxGeometry>
        </mxCell>
        <mxCell id="8fYqs_rgSFELD76FwpnV-5" value="Contract Logic" style="rounded=1;whiteSpace=wrap;html=1;fillColor=#f8cecc;strokeColor=#b85450;container=0;" parent="BF9Q4GaVTIHr-r1WIZOA-24" vertex="1">
          <mxGeometry x="10" y="60" width="120" height="30" as="geometry" />
        </mxCell>
        <mxCell id="8fYqs_rgSFELD76FwpnV-6" value="Testing" style="rounded=1;whiteSpace=wrap;html=1;fillColor=#ffe6cc;strokeColor=#d79b00;container=0;" parent="BF9Q4GaVTIHr-r1WIZOA-24" vertex="1">
          <mxGeometry x="10" y="100" width="120" height="30" as="geometry" />
        </mxCell>
        <mxCell id="BF9Q4GaVTIHr-r1WIZOA-30" value="" style="group" vertex="1" connectable="0" parent="1">
          <mxGeometry x="281" y="740" width="89" height="30" as="geometry" />
        </mxCell>
        <mxCell id="BF9Q4GaVTIHr-r1WIZOA-28" value="" style="rounded=1;whiteSpace=wrap;html=1;" vertex="1" parent="BF9Q4GaVTIHr-r1WIZOA-30">
          <mxGeometry x="9" width="70" height="30" as="geometry" />
        </mxCell>
        <mxCell id="BF9Q4GaVTIHr-r1WIZOA-29" value="Base 64&lt;br&gt;Encoding" style="text;html=1;strokeColor=none;fillColor=none;align=center;verticalAlign=middle;whiteSpace=wrap;rounded=0;fontStyle=1" vertex="1" parent="BF9Q4GaVTIHr-r1WIZOA-30">
          <mxGeometry width="89" height="30" as="geometry" />
        </mxCell>
        <mxCell id="BF9Q4GaVTIHr-r1WIZOA-32" value="" style="group" vertex="1" connectable="0" parent="1">
          <mxGeometry x="147" y="690" width="89" height="30" as="geometry" />
        </mxCell>
        <mxCell id="BF9Q4GaVTIHr-r1WIZOA-33" value="" style="rounded=1;whiteSpace=wrap;html=1;" vertex="1" parent="BF9Q4GaVTIHr-r1WIZOA-32">
          <mxGeometry x="9" width="70" height="30" as="geometry" />
        </mxCell>
        <mxCell id="BF9Q4GaVTIHr-r1WIZOA-34" value="Local&lt;br&gt;Contract" style="text;html=1;strokeColor=none;fillColor=none;align=center;verticalAlign=middle;whiteSpace=wrap;rounded=0;fontStyle=1" vertex="1" parent="BF9Q4GaVTIHr-r1WIZOA-32">
          <mxGeometry width="89" height="30" as="geometry" />
        </mxCell>
        <mxCell id="BF9Q4GaVTIHr-r1WIZOA-39" value="" style="group" vertex="1" connectable="0" parent="1">
          <mxGeometry x="695" y="760" width="120" height="60" as="geometry" />
        </mxCell>
        <mxCell id="BF9Q4GaVTIHr-r1WIZOA-36" value="" style="rounded=1;whiteSpace=wrap;html=1;" vertex="1" parent="BF9Q4GaVTIHr-r1WIZOA-39">
          <mxGeometry x="-20" width="120" height="60" as="geometry" />
        </mxCell>
        <mxCell id="BF9Q4GaVTIHr-r1WIZOA-38" value="&lt;font style=&quot;font-size: 20px;&quot;&gt;Compiler&lt;/font&gt;" style="text;html=1;strokeColor=none;fillColor=none;align=center;verticalAlign=middle;whiteSpace=wrap;rounded=0;fontSize=20;fontStyle=3;fontColor=#FFA557;movable=1;resizable=1;rotatable=1;deletable=1;editable=1;locked=0;connectable=1;" vertex="1" parent="BF9Q4GaVTIHr-r1WIZOA-39">
          <mxGeometry x="-10" y="15" width="100" height="30" as="geometry" />
        </mxCell>
        <mxCell id="BF9Q4GaVTIHr-r1WIZOA-40" style="edgeStyle=orthogonalEdgeStyle;rounded=0;orthogonalLoop=1;jettySize=auto;html=1;exitX=1;exitY=0.5;exitDx=0;exitDy=0;entryX=0;entryY=0.5;entryDx=0;entryDy=0;strokeWidth=4;strokeColor=#FFAD66;" edge="1" parent="1" source="BF9Q4GaVTIHr-r1WIZOA-36" target="8fYqs_rgSFELD76FwpnV-71">
          <mxGeometry relative="1" as="geometry" />
        </mxCell>
        <mxCell id="BF9Q4GaVTIHr-r1WIZOA-41" style="edgeStyle=orthogonalEdgeStyle;rounded=0;orthogonalLoop=1;jettySize=auto;html=1;exitX=0;exitY=0.5;exitDx=0;exitDy=0;startArrow=classic;startFill=1;endArrow=none;endFill=0;strokeWidth=4;strokeColor=#FFA557;" edge="1" parent="1" source="BF9Q4GaVTIHr-r1WIZOA-36" target="8fYqs_rgSFELD76FwpnV-60">
          <mxGeometry relative="1" as="geometry" />
        </mxCell>
        <mxCell id="BF9Q4GaVTIHr-r1WIZOA-43" style="edgeStyle=orthogonalEdgeStyle;rounded=0;orthogonalLoop=1;jettySize=auto;html=1;exitX=0.5;exitY=1;exitDx=0;exitDy=0;" edge="1" parent="1" source="BF9Q4GaVTIHr-r1WIZOA-42" target="BF9Q4GaVTIHr-r1WIZOA-36">
          <mxGeometry relative="1" as="geometry" />
        </mxCell>
        <mxCell id="BF9Q4GaVTIHr-r1WIZOA-42" value="SDK" style="rounded=1;whiteSpace=wrap;html=1;fillColor=#d5e8d4;strokeColor=#82b366;container=0;" vertex="1" parent="1">
          <mxGeometry x="610" y="680" width="120" height="30" as="geometry" />
        </mxCell>
        <mxCell id="BF9Q4GaVTIHr-r1WIZOA-45" style="edgeStyle=orthogonalEdgeStyle;rounded=0;orthogonalLoop=1;jettySize=auto;html=1;exitX=0.5;exitY=1;exitDx=0;exitDy=0;" edge="1" parent="1" source="BF9Q4GaVTIHr-r1WIZOA-44" target="BF9Q4GaVTIHr-r1WIZOA-36">
          <mxGeometry relative="1" as="geometry" />
        </mxCell>
        <mxCell id="BF9Q4GaVTIHr-r1WIZOA-44" value="Dependencies" style="rounded=1;whiteSpace=wrap;html=1;fillColor=#d5e8d4;strokeColor=#82b366;container=0;" vertex="1" parent="1">
          <mxGeometry x="740" y="680" width="120" height="30" as="geometry" />
        </mxCell>
        <mxCell id="BF9Q4GaVTIHr-r1WIZOA-46" value="" style="group" vertex="1" connectable="0" parent="1">
          <mxGeometry x="990" y="760" width="120" height="60" as="geometry" />
        </mxCell>
        <mxCell id="BF9Q4GaVTIHr-r1WIZOA-47" value="" style="rounded=1;whiteSpace=wrap;html=1;" vertex="1" parent="BF9Q4GaVTIHr-r1WIZOA-46">
          <mxGeometry x="-20" width="120" height="60" as="geometry" />
        </mxCell>
        <mxCell id="BF9Q4GaVTIHr-r1WIZOA-48" value="&lt;font style=&quot;font-size: 20px;&quot;&gt;Runtime&lt;/font&gt;" style="text;html=1;strokeColor=none;fillColor=none;align=center;verticalAlign=middle;whiteSpace=wrap;rounded=0;fontSize=20;fontStyle=3;fontColor=#FFA557;movable=1;resizable=1;rotatable=1;deletable=1;editable=1;locked=0;connectable=1;" vertex="1" parent="BF9Q4GaVTIHr-r1WIZOA-46">
          <mxGeometry x="-10" y="15" width="100" height="30" as="geometry" />
        </mxCell>
        <mxCell id="BF9Q4GaVTIHr-r1WIZOA-55" style="edgeStyle=orthogonalEdgeStyle;rounded=0;orthogonalLoop=1;jettySize=auto;html=1;exitX=0.5;exitY=1;exitDx=0;exitDy=0;entryX=0.5;entryY=0;entryDx=0;entryDy=0;" edge="1" parent="1" source="BF9Q4GaVTIHr-r1WIZOA-51" target="BF9Q4GaVTIHr-r1WIZOA-47">
          <mxGeometry relative="1" as="geometry" />
        </mxCell>
        <mxCell id="BF9Q4GaVTIHr-r1WIZOA-51" value="Input State" style="rounded=1;whiteSpace=wrap;html=1;fillColor=#dae8fc;strokeColor=#6c8ebf;container=0;" vertex="1" parent="1">
          <mxGeometry x="921.5" y="670" width="68.5" height="30" as="geometry" />
        </mxCell>
        <mxCell id="BF9Q4GaVTIHr-r1WIZOA-59" style="edgeStyle=orthogonalEdgeStyle;rounded=0;orthogonalLoop=1;jettySize=auto;html=1;exitX=0.5;exitY=1;exitDx=0;exitDy=0;entryX=0.5;entryY=0;entryDx=0;entryDy=0;" edge="1" parent="1" source="BF9Q4GaVTIHr-r1WIZOA-53" target="BF9Q4GaVTIHr-r1WIZOA-47">
          <mxGeometry relative="1" as="geometry" />
        </mxCell>
        <mxCell id="BF9Q4GaVTIHr-r1WIZOA-53" value="Input Event" style="rounded=1;whiteSpace=wrap;html=1;fillColor=#dae8fc;strokeColor=#6c8ebf;container=0;" vertex="1" parent="1">
          <mxGeometry x="1069" y="670" width="70" height="30" as="geometry" />
        </mxCell>
        <mxCell id="BF9Q4GaVTIHr-r1WIZOA-58" style="edgeStyle=orthogonalEdgeStyle;rounded=0;orthogonalLoop=1;jettySize=auto;html=1;exitX=0.5;exitY=1;exitDx=0;exitDy=0;entryX=0.5;entryY=0;entryDx=0;entryDy=0;" edge="1" parent="1" source="BF9Q4GaVTIHr-r1WIZOA-54" target="BF9Q4GaVTIHr-r1WIZOA-47">
          <mxGeometry relative="1" as="geometry" />
        </mxCell>
        <mxCell id="BF9Q4GaVTIHr-r1WIZOA-54" value="Flags" style="rounded=1;whiteSpace=wrap;html=1;fillColor=#dae8fc;strokeColor=#6c8ebf;container=0;" vertex="1" parent="1">
          <mxGeometry x="995.5" y="670" width="68.5" height="30" as="geometry" />
        </mxCell>
        <mxCell id="BF9Q4GaVTIHr-r1WIZOA-60" value="Output State" style="rounded=1;whiteSpace=wrap;html=1;fillColor=#fff2cc;strokeColor=#d6b656;container=0;" vertex="1" parent="1">
          <mxGeometry x="995.5" y="850" width="80" height="40" as="geometry" />
        </mxCell>
        <mxCell id="BF9Q4GaVTIHr-r1WIZOA-62" style="edgeStyle=orthogonalEdgeStyle;rounded=0;orthogonalLoop=1;jettySize=auto;html=1;exitX=0.5;exitY=1;exitDx=0;exitDy=0;entryX=0.5;entryY=0;entryDx=0;entryDy=0;" edge="1" parent="1" source="BF9Q4GaVTIHr-r1WIZOA-47" target="BF9Q4GaVTIHr-r1WIZOA-60">
          <mxGeometry relative="1" as="geometry" />
        </mxCell>
        <mxCell id="BF9Q4GaVTIHr-r1WIZOA-75" value="&lt;div style=&quot;letter-spacing:1px&quot;&gt;&lt;div style=&quot;border-color: var(--border-color);&quot;&gt;&lt;br&gt;&lt;/div&gt;&lt;/div&gt;" style="ellipse;whiteSpace=wrap;html=1;aspect=fixed;fontFamily=Helvetica;spacing=2;noLabel=0;" vertex="1" parent="1">
          <mxGeometry x="155" y="910" width="80" height="80" as="geometry" />
        </mxCell>
        <mxCell id="BF9Q4GaVTIHr-r1WIZOA-87" value="" style="group" vertex="1" connectable="0" parent="1">
          <mxGeometry x="168" y="933" width="54" height="42" as="geometry" />
        </mxCell>
        <mxCell id="BF9Q4GaVTIHr-r1WIZOA-79" value="" style="triangle;whiteSpace=wrap;html=1;rotation=-90;fillColor=#bac8d3;strokeColor=#23445d;" vertex="1" parent="BF9Q4GaVTIHr-r1WIZOA-87">
          <mxGeometry x="22.499999999999996" y="18.666666666666664" width="8.999999999999998" height="28" as="geometry" />
        </mxCell>
        <mxCell id="BF9Q4GaVTIHr-r1WIZOA-77" value="" style="rounded=1;whiteSpace=wrap;html=1;fillColor=#bac8d3;strokeColor=#23445D;" vertex="1" parent="BF9Q4GaVTIHr-r1WIZOA-87">
          <mxGeometry width="54" height="32.666666666666664" as="geometry" />
        </mxCell>
        <mxCell id="BF9Q4GaVTIHr-r1WIZOA-78" value="" style="rounded=1;whiteSpace=wrap;html=1;" vertex="1" parent="BF9Q4GaVTIHr-r1WIZOA-87">
          <mxGeometry x="4.499999999999999" y="4.666666666666666" width="44.99999999999999" height="23.33333333333333" as="geometry" />
        </mxCell>
        <mxCell id="BF9Q4GaVTIHr-r1WIZOA-80" value="" style="rounded=0;whiteSpace=wrap;html=1;fillColor=#bac8d3;strokeColor=none;" vertex="1" parent="BF9Q4GaVTIHr-r1WIZOA-87">
          <mxGeometry x="13.049999999999999" y="37.33333333333333" width="27.9" height="4.666666666666666" as="geometry" />
        </mxCell>
        <mxCell id="BF9Q4GaVTIHr-r1WIZOA-81" value="" style="endArrow=none;html=1;rounded=0;strokeColor=#23445D;" edge="1" parent="BF9Q4GaVTIHr-r1WIZOA-87">
          <mxGeometry width="50" height="50" relative="1" as="geometry">
            <mxPoint x="13.049999999999999" y="42" as="sourcePoint" />
            <mxPoint x="13.049999999999999" y="37.33333333333333" as="targetPoint" />
          </mxGeometry>
        </mxCell>
        <mxCell id="BF9Q4GaVTIHr-r1WIZOA-82" value="" style="endArrow=none;html=1;rounded=0;strokeColor=#23445D;" edge="1" parent="BF9Q4GaVTIHr-r1WIZOA-87">
          <mxGeometry width="50" height="50" relative="1" as="geometry">
            <mxPoint x="40.949999999999996" y="42" as="sourcePoint" />
            <mxPoint x="40.949999999999996" y="37.33333333333333" as="targetPoint" />
          </mxGeometry>
        </mxCell>
        <mxCell id="BF9Q4GaVTIHr-r1WIZOA-83" value="" style="endArrow=none;html=1;rounded=0;strokeColor=#23445D;" edge="1" parent="BF9Q4GaVTIHr-r1WIZOA-87">
          <mxGeometry width="50" height="50" relative="1" as="geometry">
            <mxPoint x="12.599999999999998" y="42" as="sourcePoint" />
            <mxPoint x="40.949999999999996" y="42" as="targetPoint" />
          </mxGeometry>
        </mxCell>
      </root>
    </mxGraphModel>
  </diagram>
</mxfile>
